<svg data-v-423bf9ae="" xmlns="http://www.w3.org/2000/svg" viewBox="0 0 1706 1309" class="iconLeft"><!----><!----><!----><g data-v-423bf9ae="" id="0f2f760b-10bb-4cfe-ac23-89f8baef2496" fill="#666666" transform="matrix(5.9940058569511425,0,0,5.9940058569511425,1337.8317856615604,592.9789316967302)"><path d="M1.82 5.75L0.98 5.75L0.98 5.19L4.76 5.19L4.76 5.75L3.92 5.75L3.92 10.02L6.90 5.19L9.13 5.19L9.13 5.75L8.36 5.75L4.30 10.30L5.21 10.30L5.21 10.30Q7 10.30 7.41 11.66L7.41 11.66L7.99 13.62L7.99 13.62Q8.09 13.97 8.25 14.11L8.25 14.11L8.25 14.11Q8.40 14.25 8.76 14.25L8.76 14.25L8.76 14.25Q9.13 14.25 9.62 13.85L9.62 13.85L9.87 14.18L9.87 14.18Q8.75 15.20 7.49 15.20L7.49 15.20L7.49 15.20Q6.85 15.20 6.45 14.98L6.45 14.98L6.45 14.98Q6.06 14.76 5.89 14.20L5.89 14.20L5.07 11.48L5.07 11.48Q4.96 11.09 4.72 10.93L4.72 10.93L4.72 10.93Q4.48 10.78 3.92 10.75L3.92 10.75L3.92 14.43L4.76 14.43L4.76 14.99L0.98 14.99L0.98 14.43L1.82 14.43L1.82 5.75ZM11.41 5.75L10.43 5.75L10.43 5.19L14.49 5.19L14.49 5.75L13.51 5.75L13.51 14.43L14.49 14.43L14.49 14.99L10.43 14.99L10.43 14.43L11.41 14.43L11.41 5.75ZM18.83 14.99L16.17 14.99L16.17 14.43L17.01 14.43L17.01 5.75L16.17 5.75L16.17 5.19L19.45 5.19L23.45 13.08L23.45 5.75L22.61 5.75L22.61 5.19L25.27 5.19L25.27 5.75L24.43 5.75L24.43 14.99L22.20 14.99L17.99 6.71L17.99 14.43L18.83 14.43L18.83 14.99ZM33.38 14.99L33.38 14.99L27.09 14.99L27.09 14.43L27.93 14.43L27.93 5.75L27.09 5.75L27.09 5.19L33.10 5.19L33.10 5.19Q33.40 5.19 33.55 5.21L33.55 5.21L33.55 5.21Q33.70 5.24 33.82 5.37L33.82 5.37L33.82 5.37Q33.95 5.50 33.95 5.78L33.95 5.78L33.57 8.13L33.03 8.13L32.75 6.75L32.75 6.75Q32.62 6.12 32.28 5.94L32.28 5.94L32.28 5.94Q31.93 5.75 31.01 5.75L31.01 5.75L30.03 5.75L30.03 10.54L33.25 10.54L33.25 11.17L30.03 11.17L30.03 14.43L31.29 14.43L31.29 14.43Q32.20 14.43 32.54 14.25L32.54 14.25L32.54 14.25Q32.89 14.07 33.03 13.44L33.03 13.44L33.31 12.19L33.85 12.19L34.23 14.41L34.23 14.41Q34.23 14.69 34.10 14.82L34.10 14.82L34.10 14.82Q33.98 14.95 33.83 14.97L33.83 14.97L33.83 14.97Q33.68 14.99 33.38 14.99ZM36.75 5.75L35.91 5.75L35.91 5.19L38.99 5.19L38.99 5.19Q42.39 5.19 43.30 6.76L43.30 6.76L43.30 6.76Q43.65 7.38 43.65 8.26L43.65 8.26L43.65 8.26Q43.65 10.30 41.33 11.00L41.33 11.00L41.33 11.00Q42.21 11.30 42.50 12.22L42.50 12.22L42.92 13.62L42.92 13.62Q43.02 13.97 43.18 14.11L43.18 14.11L43.18 14.11Q43.33 14.25 43.69 14.25L43.69 14.25L43.69 14.25Q44.06 14.25 44.55 13.85L44.55 13.85L44.80 14.18L44.80 14.18Q43.68 15.20 42.42 15.20L42.42 15.20L42.42 15.20Q41.78 15.20 41.38 14.98L41.38 14.98L41.38 14.98Q40.99 14.76 40.82 14.20L40.82 14.20L40.17 12.04L40.17 12.04Q40.04 11.63 39.77 11.48L39.77 11.48L39.77 11.48Q39.51 11.33 38.85 11.31L38.85 11.31L38.85 14.43L39.97 14.43L39.97 14.99L35.91 14.99L35.91 14.43L36.75 14.43L36.75 5.75ZM38.99 5.75L38.99 5.75L38.85 5.75L38.85 10.75L38.99 10.75L38.99 10.75Q40.10 10.75 40.82 10.10L40.82 10.10L40.82 10.10Q41.55 9.45 41.55 8.26L41.55 8.26L41.55 8.26Q41.55 7.07 40.82 6.41L40.82 6.41L40.82 6.41Q40.10 5.75 38.99 5.75ZM51.31 5.75L50.47 5.75L50.47 12.33L50.47 12.33Q50.47 13.80 49.58 14.50L49.58 14.50L49.58 14.50Q48.69 15.20 47.19 15.20L47.19 15.20L47.19 15.20Q46.34 15.20 45.57 14.76L45.57 14.76L45.57 14.76Q44.80 14.31 44.80 13.69L44.80 13.69L44.80 13.69Q44.80 13.45 44.95 13.15L44.95 13.15L45.79 11.52L46.30 11.68L46.17 12.54L46.17 12.54Q46.12 13.03 46.12 13.47L46.12 13.47L46.12 13.47Q46.12 13.90 46.42 14.22L46.42 14.22L46.42 14.22Q46.72 14.55 47.23 14.55L47.23 14.55L47.23 14.55Q47.74 14.55 48.05 14.20L48.05 14.20L48.05 14.20Q48.37 13.85 48.37 13.15L48.37 13.15L48.37 5.75L47.04 5.75L47.04 5.19L51.31 5.19L51.31 5.75ZM55.47 5.75L54.52 5.75L54.52 5.19L57.85 5.19L60.63 14.43L61.33 14.43L61.33 14.99L57.72 14.99L57.72 14.43L58.53 14.43L58.02 12.71L54.21 12.71L53.70 14.43L54.52 14.43L54.52 14.99L52.15 14.99L52.15 14.43L52.85 14.43L55.47 5.75ZM57.82 12.08L56.10 6.36L54.40 12.08L57.82 12.08Z"></path></g><!----><g data-v-423bf9ae="" id="38308109-0e19-4f73-873a-2309cf41fc3a" transform="matrix(3.8125169542100696,0,0,3.8125169542100696,-332.94815709840304,-277.6082249617515)" stroke="none" fill="#606060"><switch><g><path d="M301 105.1l-32.6-30.4c-.1-.1-.1-.1-.2-.1-1.9-1.7-4.7-2-7-.8l-169.9 87c-2.3 1-3.8 3.3-3.8 5.8v90.7c.1 1.6.8 3.2 2 4.3l164.1 152.7c1.2 1.2 2.8 1.9 4.5 1.9 1.2 0 2.3-.3 3.2-.9l169.5-86.9c2.3-1 3.9-3.3 3.9-5.8v-90.4c0-1.9-.8-3.6-2.3-4.8L399.8 197l-.2-.2c-1.9-1.6-4.7-2-6.9-.8l-80.5 41.2v-37.1c0-1.9-.8-3.6-2.3-4.8l-6.7-6.2v-79.2c0-1.9-.8-3.6-2.2-4.8zm-36.6 294.6v-76.3l157.7-80.8v76.3l-157.7 80.8zm26.2-222.3L277.3 165c-.1-.1-.2-.2-.3-.2-1.9-1.6-4.6-1.9-6.9-.8l-52.8 27.1-23.1-21.5 96.4-49.4v57.2zm-110-14.9c-1.5.8-2.6 2.1-3.1 3.7s-.4 3.3.4 4.8c.3.6.7 1.1 1.1 1.6l.2.2 32.9 30.6c2 1.9 5 2.2 7.4.9l52.6-27 23.1 21.5-48.8 25c-3.1 1.6-4.3 5.4-2.8 8.4.3.6.7 1.2 1.2 1.7l.1.1 32.9 30.6c2 1.9 5 2.2 7.4.9l109.4-56.1 23.1 21.5-158.4 81.2-154.7-144L263 86.9l23.1 21.5-105.5 54.1zm79.4 68.3l39.6-20.3v33.3l-16.5 8.5-23.1-21.5zm-8.2 91.5v73.2L100.1 254.3v-73.2l151.7 141.2z"></path></g></switch></g><!----></svg>